<svg width="80" height="51" viewBox="0 0 80 51" fill="none" xmlns="http://www.w3.org/2000/svg">
<path d="M23.7082 0.0146484C25.9983 0.0146484 28.1164 0.193843 30.0517 0.724259C31.9906 1.07906 33.5783 1.78868 34.9867 2.6739C36.3988 3.56031 37.456 4.80154 38.1585 6.39756C38.8645 7.99239 39.2193 9.94561 39.2193 12.0709C39.2193 14.5545 38.6889 16.6797 37.456 18.2746C36.3988 19.873 34.6355 21.2886 32.521 22.3531C35.5171 23.2419 37.8072 24.8367 39.2193 26.9619C40.6314 29.0872 41.5094 31.75 41.5094 34.7641C41.5094 37.2477 40.979 39.373 40.0974 41.147C39.2193 42.921 37.8072 44.5158 36.2196 45.5803C34.4942 46.7199 32.588 47.5585 30.5821 48.0603C28.4676 48.5943 26.3531 48.9491 24.2386 48.9491H0.617188V0.0146484H23.7082ZM22.2962 19.8694C24.235 19.8694 25.8227 19.339 27.0556 18.4538C28.2884 17.5686 28.8188 15.9701 28.8188 14.0205C28.8188 12.9561 28.6396 11.8917 28.2884 11.1856C27.9372 10.4796 27.4068 9.94203 26.7043 9.41162C25.9861 9.00823 25.2137 8.71011 24.4107 8.52639C23.529 8.3472 22.651 8.3472 21.5901 8.3472H11.3689V19.873L22.2962 19.8694ZM22.8266 40.7922C23.8838 40.7922 24.9411 40.613 25.8227 40.4374C26.7043 40.2582 27.586 39.907 28.2884 39.373C29.0038 38.851 29.604 38.1873 30.0517 37.4233C30.4029 36.5381 30.7577 35.4737 30.7577 34.2337C30.7577 31.75 30.0517 29.976 28.6432 28.736C27.2312 27.6715 25.2923 27.1411 23.0022 27.1411H11.3689V40.7958L22.8266 40.7922ZM56.8449 40.613C58.2545 42.0322 60.369 42.7418 63.1884 42.7418C65.1273 42.7418 66.8905 42.2114 68.299 41.3262C69.7111 40.2606 70.5927 39.1962 70.9439 38.1329H79.5811C78.169 42.387 76.0545 45.4011 73.2376 47.3507C70.4135 49.1247 67.0661 50.1891 63.0128 50.1891C60.4197 50.193 57.8488 49.7116 55.4328 48.7699C53.2579 47.9588 51.3192 46.6187 49.7918 44.8706C48.1515 43.2412 46.941 41.2303 46.2688 39.0182C45.3872 36.7137 45.0324 34.2337 45.0324 31.3952C45.0324 28.736 45.3872 26.2559 46.2688 23.9479C47.1145 21.7244 48.3703 19.6796 49.971 17.9198C51.5551 16.3249 53.4939 14.9093 55.6084 14.0205C57.9622 13.0754 60.4763 12.5936 63.0128 12.6013C66.0089 12.6013 68.6538 13.1353 70.9439 14.3753C73.2376 15.6153 74.9973 17.0346 76.4058 19.1634C77.8178 21.113 78.8787 23.4175 79.5811 25.9011C79.9323 28.3812 80.1079 30.8648 79.9323 33.6997H54.3756C54.3756 36.5381 55.4328 39.1974 56.8449 40.6166M67.9478 22.0018C66.7149 20.7618 64.776 20.0522 62.4823 20.0522C61.1375 20.032 59.8075 20.3356 58.6046 20.9374C57.5473 21.4714 56.8449 22.181 56.1389 22.8906C55.486 23.5732 55.0561 24.4381 54.906 25.3707C54.7268 26.2595 54.5512 26.9655 54.5512 27.6751H70.4135C70.0623 25.0159 69.1806 23.2454 67.9478 22.0018ZM52.4367 3.38351H72.1768V8.17159H52.4403L52.4367 3.38351Z" fill="#3D5BC7"/>
</svg>
