<svg width="51" height="51" viewBox="0 0 51 51" fill="none" xmlns="http://www.w3.org/2000/svg">
<path d="M14.5408 0.03125H35.5999C43.6225 0.03125 50.1408 6.54955 50.1408 14.5721V35.6312C50.1408 39.4877 48.6088 43.1862 45.8818 45.9131C43.1549 48.64 39.4564 50.172 35.5999 50.172H14.5408C6.5183 50.172 0 43.6537 0 35.6312V14.5721C0 10.7156 1.53197 7.01709 4.25891 4.29016C6.98584 1.56322 10.6844 0.03125 14.5408 0.03125ZM14.0394 5.04533C11.6457 5.04533 9.35011 5.99621 7.65754 7.68879C5.96496 9.38136 5.01408 11.677 5.01408 14.0707V36.1326C5.01408 41.1216 9.05041 45.1579 14.0394 45.1579H36.1013C38.495 45.1579 40.7906 44.207 42.4832 42.5145C44.1758 40.8219 45.1267 38.5263 45.1267 36.1326V14.0707C45.1267 9.08166 41.0903 5.04533 36.1013 5.04533H14.0394ZM38.2323 8.80588C39.0635 8.80588 39.8606 9.13605 40.4483 9.72375C41.036 10.3115 41.3661 11.1085 41.3661 11.9397C41.3661 12.7708 41.036 13.5679 40.4483 14.1556C39.8606 14.7433 39.0635 15.0735 38.2323 15.0735C37.4012 15.0735 36.6041 14.7433 36.0164 14.1556C35.4287 13.5679 35.0985 12.7708 35.0985 11.9397C35.0985 11.1085 35.4287 10.3115 36.0164 9.72375C36.6041 9.13605 37.4012 8.80588 38.2323 8.80588ZM25.0704 12.5664C28.3949 12.5664 31.5833 13.8871 33.9341 16.2379C36.2849 18.5887 37.6056 21.7771 37.6056 25.1016C37.6056 28.4262 36.2849 31.6145 33.9341 33.9653C31.5833 36.3161 28.3949 37.6368 25.0704 37.6368C21.7458 37.6368 18.5575 36.3161 16.2067 33.9653C13.8559 31.6145 12.5352 28.4262 12.5352 25.1016C12.5352 21.7771 13.8559 18.5887 16.2067 16.2379C18.5575 13.8871 21.7458 12.5664 25.0704 12.5664ZM25.0704 17.5805C23.0757 17.5805 21.1626 18.3729 19.7521 19.7834C18.3417 21.1939 17.5493 23.1069 17.5493 25.1016C17.5493 27.0963 18.3417 29.0094 19.7521 30.4199C21.1626 31.8303 23.0757 32.6227 25.0704 32.6227C27.0651 32.6227 28.9781 31.8303 30.3886 30.4199C31.7991 29.0094 32.5915 27.0963 32.5915 25.1016C32.5915 23.1069 31.7991 21.1939 30.3886 19.7834C28.9781 18.3729 27.0651 17.5805 25.0704 17.5805Z" fill="#3D5BC7"/>
</svg>
