<svg width="51" height="51" viewBox="0 0 51 51" fill="none" xmlns="http://www.w3.org/2000/svg">
<path d="M44.9033 0C46.3828 0 47.8016 0.587706 48.8477 1.63383C49.8939 2.67995 50.4816 4.0988 50.4816 5.57825V44.626C50.4816 46.1054 49.8939 47.5243 48.8477 48.5704C47.8016 49.6165 46.3828 50.2042 44.9033 50.2042H5.85559C4.37615 50.2042 2.9573 49.6165 1.91117 48.5704C0.86505 47.5243 0.277344 46.1054 0.277344 44.626V5.57825C0.277344 4.0988 0.86505 2.67995 1.91117 1.63383C2.9573 0.587706 4.37615 0 5.85559 0H44.9033ZM43.5088 43.2314V28.4491C43.5088 26.0376 42.5508 23.7248 40.8456 22.0197C39.1404 20.3145 36.8277 19.3565 34.4162 19.3565C32.0455 19.3565 29.2842 20.8069 27.9454 22.9824V19.8864H20.1638V43.2314H27.9454V29.481C27.9454 27.3334 29.6747 25.5763 31.8223 25.5763C32.8579 25.5763 33.8511 25.9877 34.5834 26.7199C35.3157 27.4522 35.7271 28.4454 35.7271 29.481V43.2314H43.5088ZM11.0991 15.5075C12.3419 15.5075 13.5337 15.0139 14.4125 14.1351C15.2912 13.2564 15.7849 12.0645 15.7849 10.8218C15.7849 8.22791 13.693 6.10818 11.0991 6.10818C9.84901 6.10818 8.65009 6.60479 7.76611 7.48877C6.88214 8.37274 6.38552 9.57167 6.38552 10.8218C6.38552 13.4157 8.50526 15.5075 11.0991 15.5075ZM14.976 43.2314V19.8864H7.25015V43.2314H14.976Z" fill="#3D5BC7"/>
</svg>
