<svg width="16" height="16" viewBox="0 0 16 16" fill="none" xmlns="http://www.w3.org/2000/svg">
<path d="M15.9477 10.9939C15.8522 10.6609 15.6225 10.4201 15.2412 10.611C15.0122 10.7259 14.8573 10.9709 14.7528 11.225C14.4292 12.013 14.4615 12.9804 14.0086 13.7006C13.826 13.9909 13.5479 14.2227 13.2314 14.2607C12.6065 14.3365 12.1239 13.7437 11.9665 13.1293C11.57 11.5813 12.3468 9.64972 11.1452 8.39595C10.6429 7.87169 9.8496 7.81859 9.2315 8.09166C8.5734 8.38267 8.06498 8.98839 7.67496 9.64577C7.7127 9.58226 7.68722 9.36301 7.69335 9.28263C7.70432 9.14089 7.7198 8.99951 7.73883 8.85885C7.77561 8.58865 7.82594 8.32131 7.88529 8.05614C8.00433 7.52327 8.15854 7.00116 8.31016 6.47906C8.6134 5.43628 8.87406 4.40392 8.90697 3.30301C8.9231 2.75794 8.91729 1.97819 8.65792 1.50058C8.43307 1.08613 7.94723 0.896306 7.53753 1.05671C7.20558 1.1866 6.98589 1.53324 6.83556 1.86983C6.66426 2.25342 6.55812 2.67146 6.47683 3.08879C6.43489 3.3048 6.40069 3.52226 6.37069 3.74079C6.24488 4.64972 6.25133 5.57551 6.30294 6.49126C6.36521 7.59826 6.47263 8.67692 6.10842 9.72938C5.30966 12.0374 2.29303 12.6187 1.122 10.3383C1.1049 10.3053 1.08877 10.2719 1.07296 10.2382C0.70649 9.45236 0.646163 8.45767 0.936503 7.63092C1.08974 7.19457 1.29781 6.76828 1.6288 6.46757C2.1298 6.01329 2.83435 5.82849 3.42149 6.14534C3.61182 6.24797 3.79957 6.36459 4.00636 6.41303C4.31218 6.4848 4.69737 6.35634 4.74834 5.96413C4.79737 5.58771 4.44122 5.24179 4.16379 5.10257C3.65731 4.84851 3.06985 4.82519 2.53531 4.97374C0.842304 5.44418 -0.0893632 7.09374 0.00677142 8.97906C0.0832275 10.4779 0.862628 11.8013 2.14238 12.3403C2.34788 12.4267 2.56015 12.4928 2.77532 12.5409C4.14282 12.8469 5.5929 12.1598 6.27068 11.0352C6.25584 12.135 6.2181 12.9517 6.20971 13.9338C6.20552 14.4215 6.19552 14.9996 6.86588 14.9999C7.67431 15.0007 7.60108 14.6085 7.60947 13.593C7.62238 12.0241 7.72787 10.3268 8.65986 9.1495C8.88987 8.85921 9.16988 8.60479 9.50119 8.48674C9.8325 8.36868 10.2206 8.40528 10.4935 8.64534C10.8116 8.92523 11.0632 9.56647 11.0929 10.0164C11.1448 10.8037 11.0493 11.521 11.0764 12.3101C11.1035 13.0992 11.2932 13.9324 11.8197 14.4621C12.6069 15.254 13.7608 15.1047 14.5696 14.4481C15.0838 14.0307 15.4054 13.4024 15.669 12.7633C15.8467 12.3317 16.0029 11.8508 16 11.3703C15.9993 11.2433 15.9822 11.1127 15.948 10.9936L15.9477 10.9939ZM7.25106 7.39731C7.16235 6.66744 7.01395 4.31744 7.32881 2.93772C7.53785 2.02125 8.01401 1.56338 8.12595 2.25629C8.33274 3.53805 7.94078 5.9853 7.25106 7.39731Z" fill="#384A93"/>
</svg>
