<svg id="eCDIjM6uzlU1" xmlns="http://www.w3.org/2000/svg" xmlns:xlink="http://www.w3.org/1999/xlink" viewBox="0 0 612 612" shape-rendering="geometricPrecision" text-rendering="geometricPrecision" project-id="089860d56ad241559d875948102fa915" export-id="4dabac5ce9004a98994b7c5183c3ae14" cached="false">
<style><![CDATA[
#eCDIjM6uzlU4 {animation: eCDIjM6uzlU4_s_do 3076.9230769230767ms linear 1 normal forwards}@keyframes eCDIjM6uzlU4_s_do { 0% {stroke-dashoffset: 1702.51} 75% {stroke-dashoffset: 0} 100% {stroke-dashoffset: 0}} #eCDIjM6uzlU9 {animation: eCDIjM6uzlU9_s_do 3076.9230769230767ms linear 1 normal forwards}@keyframes eCDIjM6uzlU9_s_do { 0% {stroke-dashoffset: 698.09} 17.5% {stroke-dashoffset: 0} 100% {stroke-dashoffset: 0}} #eCDIjM6uzlU14 {animation: eCDIjM6uzlU14_s_do 3076.9230769230767ms linear 1 normal forwards}@keyframes eCDIjM6uzlU14_s_do { 0% {stroke-dashoffset: 962.34} 17.5% {stroke-dashoffset: 962.34} 37.5% {stroke-dashoffset: 0} 100% {stroke-dashoffset: 0}}
]]></style>
<g display="none" mask="url(#eCDIjM6uzlU3)"><mask id="eCDIjM6uzlU3" mask-type="luminance" x="-150%" y="-150%" height="400%" width="400%"><path id="eCDIjM6uzlU4" d="M266.77,196.595281Q151.088929,168.15,151.088929,291.98c0,123.83,161.108623,133.329999,199.44107-4.750001s81.69-208.41,39.06-208.41-47.405255,248.266584-40,351.02392-11.12-180.18392,104.622098-163.173985c93.419712,13.729345-21.992098,136.220065,78.960316,173.360065c61.605854,22.664554,76.977586-84.92,76.977586-90.21" transform="translate(.000001 0.000001)" fill="none" stroke="#fff" stroke-width="50" stroke-linecap="round" stroke-dashoffset="1702.51" stroke-dasharray="1702.51"/></mask><path d="M632.05,343.38c-2.96-9.28-10.08-15.99-21.9-10.67-7.1,3.2-11.9,10.03-15.14,17.11-10.03,21.96-9.03,48.92-23.07,68.99-5.66,8.09-14.28,14.55-24.09,15.61-19.37,2.11-34.33-14.41-39.21-31.53-12.29-43.14,11.79-96.97-25.46-131.91-15.57-14.61-40.16-16.09-59.32-8.48-20.4,8.11-36.16,24.99-48.25,43.31c1.17-1.77.38-7.88.57-10.12.34-3.95.82-7.89,1.41-11.81c1.14-7.53,2.7-14.98,4.54-22.37c3.69-14.85,8.47-29.4,13.17-43.95c9.4-29.06,17.48-57.83,18.5-88.51.5-15.19.32-36.92-7.72-50.23-6.97-11.55-22.03-16.84-34.73-12.37-10.29,3.62-17.1,13.28-21.76,22.66-5.31,10.69-8.6,22.34-11.12,33.97-1.3,6.02-2.36,12.08-3.29,18.17-3.9,25.33-3.7,51.13-2.1,76.65c1.93,30.85,5.26,60.91-6.03,90.24-24.76,64.32-118.27,80.52-154.57,16.97-.53-.92-1.03-1.85-1.52-2.79-11.36-21.9-13.23-49.62-4.23-72.66c4.75-12.16,11.2-24.04,21.46-32.42c15.53-12.66,37.37-17.81,55.57-8.98c5.9,2.86,11.72,6.11,18.13,7.46c9.48,2,21.42-1.58,23-12.51c1.52-10.49-9.52-20.13-18.12-24.01-15.7-7.08-33.91-7.73-50.48-3.59-52.48,13.11-81.36,59.08-78.38,111.62c2.37,41.77,26.53,78.65,66.2,93.67c6.37,2.41,12.95,4.25,19.62,5.59c42.39,8.53,87.34-10.62,108.35-41.96-.46,30.65-1.63,53.41-1.89,80.78-.13,13.59-.44,29.7,20.34,29.71c25.06.02,22.79-10.91,23.05-39.21.4-43.72,3.67-91.02,32.56-123.83c7.13-8.09,15.81-15.18,26.08-18.47s22.3-2.27,30.76,4.42c9.86,7.8,17.66,25.67,18.58,38.21c1.61,21.94-1.35,41.93-.51,63.92s6.72,45.21,23.04,59.97c24.4,22.07,60.17,17.91,85.24-.39c15.94-11.63,25.91-29.14,34.08-46.95c5.51-12.03,10.35-25.43,10.26-38.82-.02-3.54-.55-7.18-1.61-10.5l-.01.01ZM362.47,243.15c-2.75-20.34-7.35-85.83,2.41-124.28c6.48-25.54,21.24-38.3,24.71-18.99c6.41,35.72-5.74,103.92-27.12,143.27Z" fill="#346b8f"/></g><g transform="translate(54.206895 110.911926)"><g mask="url(#eCDIjM6uzlU8)"><mask id="eCDIjM6uzlU8" mask-type="luminance" x="-150%" y="-150%" height="400%" width="400%"><path id="eCDIjM6uzlU9" d="M276.286895,244.421926q-114.090887-24.441196-116.312303,87.71c-2.221416,112.151196,112.181487,100.711273,156.609799,73.11s115.406784-231.10479,87.692503-281.520001" transform="translate(-141.50272-112.181487)" fill="none" stroke="#fff" stroke-width="50" stroke-linecap="round" stroke-linejoin="round" stroke-dashoffset="698.09" stroke-dasharray="698.09"/></mask><path d="M268.38,12.8C264.54,6.43,258.23,1.97,251.23,0l-3.4,25.31c1.81,1.24,3.26,3.99,4.07,8.54c2.56,14.26.83,29.34-1.26,43.54-2.79,18.95-7.19,37.65-12.18,56.12-7.47,27.64-17.93,55.26-31.89,80.63-13.4,24.34-30.73,52.86-54.61,68.13-22.11,14.14-50.32,20.55-75.73,12.06-17.88-5.97-32.16-19.01-41.44-35.25-.53-.92-1.03-1.85-1.52-2.79-11.36-21.9-13.23-49.62-4.23-72.66c4.75-12.16,11.2-24.04,21.46-32.42c15.53-12.66,37.37-17.81,55.57-8.98c5.9,2.86,11.72,6.11,18.13,7.46c9.48,2,21.42-1.58,23-12.51c1.52-10.49-9.52-20.13-18.12-24.01-15.7-7.08-33.91-7.73-50.48-3.59-52.49,13.13-81.37,59.1-78.39,111.64c2.37,41.77,26.53,78.65,66.2,93.67c6.37,2.41,12.95,4.25,19.62,5.59c30.74,6.18,64.22-1.95,88.89-21.27c45.37-35.53,66.3-92.5,82.15-145.56c8.89-29.76,18-59.3,19.03-90.61.5-15.19.32-36.92-7.72-50.23v-.01Z" transform="translate(3.759866 5.921077)" fill="#346b8f" stroke-width="0"/></g></g><g transform="translate(248.291813 110.916504)"><g mask="url(#eCDIjM6uzlU13)"><mask id="eCDIjM6uzlU13" mask-type="luminance" x="-150%" y="-150%" height="400%" width="400%"><path id="eCDIjM6uzlU14" d="M82.874373,12.80542Q21.516979,-21.098377,41.88071,371.010399q0-150.953901,93.164208-163.44c93.164208-12.486099,34.518076,125.009188,71.171434,167.609599s97.457298-37.819154,102.185118-80.854577" transform="translate(-20.999998 0.000001)" fill="none" stroke="#fff" stroke-width="50" stroke-linecap="round" stroke-linejoin="round" stroke-miterlimit="50" stroke-dashoffset="962.34" stroke-dasharray="962.34"/></mask><path d="M301.89,278.5c-2.96-9.28-10.08-15.99-21.9-10.67-7.1,3.2-11.9,10.03-15.14,17.11-10.03,21.96-9.03,48.92-23.07,68.99-5.66,8.09-14.28,14.55-24.09,15.61-19.37,2.11-34.33-14.41-39.21-31.53-12.29-43.14,11.79-96.97-25.46-131.91-15.57-14.61-40.16-16.09-59.32-8.48-20.4,8.11-36.16,24.99-48.25,43.31c1.17-1.77.38-7.88.57-10.12.34-3.95.82-7.89,1.41-11.81c1.14-7.53,2.7-14.98,4.54-22.37c3.69-14.85,8.47-29.4,13.17-43.95c9.4-29.06,17.48-57.83,18.5-88.51.5-15.19.32-36.92-7.72-50.24C71.11,5.98,62.45,0.99,53.37,0.13c-4.08-.39-8.25.06-12.19,1.45C30.89,5.2,24.08,14.86,19.42,24.24C14.11,34.93,10.82,46.58,8.3,58.21C7,64.23,5.94,70.29,5.01,76.38c-3.9,25.33-3.7,51.13-2.1,76.65c1.93,30.85,5.91,88.48-1,126.65-.46,30.65-1.63,53.41-1.89,80.78-.13,13.59-.44,29.7,20.34,29.71c25.06.02,22.79-10.91,23.05-39.21.4-43.72,3.67-91.02,32.56-123.83c7.13-8.09,15.81-15.18,26.08-18.47s22.3-2.27,30.76,4.42c9.86,7.8,17.66,25.67,18.58,38.21c1.61,21.94-1.35,41.93-.51,63.92s6.72,45.21,23.04,59.97c24.4,22.07,60.17,17.91,85.24-.39c15.94-11.63,25.91-29.14,34.08-46.95c5.51-12.03,10.35-25.43,10.26-38.82-.02-3.54-.55-7.18-1.61-10.5v-.02ZM32.32,178.26c-2.75-20.34-7.35-85.83,2.41-124.28c6.48-25.54,21.24-38.3,24.71-18.99c6.41,35.72-5.74,103.92-27.12,143.27Z" transform="translate(.520712 1.4704)" fill="#346b8f" stroke-width="0"/></g></g></svg>
