<?xml version="1.0" encoding="UTF-8"?>
<svg xmlns="http://www.w3.org/2000/svg" xmlns:xlink="http://www.w3.org/1999/xlink" version="1.1" viewBox="0 0 612 612">
  <!-- Generator: Adobe Illustrator 29.2.1, SVG Export Plug-In . SVG Version: 2.1.0 Build 116)  -->
  <defs>
    <style>
      .st0 {
        mask: url(#mask);
      }

      .st1 {
        stroke-dasharray: 698.1;
        stroke-dashoffset: 698.1px;
      }

      .st1, .st2 {
        stroke-linejoin: round;
      }

      .st1, .st2, .st3 {
        fill: none;
        stroke: #fff;
        stroke-linecap: round;
        stroke-width: 50px;
      }

      .st4 {
        fill: #2244bf;
      }

      .st2 {
        stroke-dasharray: 962.3;
        stroke-dashoffset: 962.3px;
      }

      .st5 {
        mask: url(#mask-2);
      }

      .st6 {
        mask: url(#mask-1);
      }

      .st3 {
        stroke-dasharray: 1702.5;
        stroke-dashoffset: 1702.5px;
      }

      .st7 {
        display: none;
      }
    </style>
    <mask id="mask" x="126.1" y="53.8" width="509.1" height="423.6" maskUnits="userSpaceOnUse">
      <g id="eCDIjM6uzlU3">
        <path id="eCDIjM6uzlU4" class="st3" d="M266.8,196.6c-77.1-19-115.7,12.8-115.7,95.4,0,123.8,161.1,133.3,199.4-4.8s81.7-208.4,39.1-208.4-47.4,248.3-40,351-11.1-180.2,104.6-163.2c93.4,13.7-22,136.2,79,173.4,61.6,22.7,77-84.9,77-90.2"/>
      </g>
    </mask>
    <mask id="mask-1" x="47.6" y="97.5" width="300.6" height="350.1" maskUnits="userSpaceOnUse">
      <g id="eCDIjM6uzlU8">
        <path id="eCDIjM6uzlU9" class="st1" d="M189,243.2c-76.1-16.3-114.8,12.9-116.3,87.7-2.2,112.2,112.2,100.7,156.6,73.1s115.4-231.1,87.7-281.5"/>
      </g>
    </mask>
    <mask id="mask-2" x="239.1" y="96" width="321.6" height="427.2" maskUnits="userSpaceOnUse">
      <g id="eCDIjM6uzlU13">
        <path id="eCDIjM6uzlU14" class="st2" d="M310.2,123.7c-40.9-22.6-54.6,96.8-41,358.2,0-100.6,31.1-155.1,93.2-163.4,93.2-12.5,34.5,125,71.2,167.6s97.5-37.8,102.2-80.9"/>
      </g>
    </mask>
  </defs>
  <g id="eCDIjM6uzlU1" shape-rendering="geometricPrecision" text-rendering="geometricPrecision">
    <g class="st0">
      <g class="st7">
        <path class="st4" d="M632,343.4c-3-9.3-10.1-16-21.9-10.7-7.1,3.2-11.9,10-15.1,17.1-10,22-9,48.9-23.1,69-5.7,8.1-14.3,14.5-24.1,15.6-19.4,2.1-34.3-14.4-39.2-31.5-12.3-43.1,11.8-97-25.5-131.9-15.6-14.6-40.2-16.1-59.3-8.5-20.4,8.1-36.2,25-48.2,43.3,1.2-1.8.4-7.9.6-10.1.3-4,.8-7.9,1.4-11.8,1.1-7.5,2.7-15,4.5-22.4,3.7-14.9,8.5-29.4,13.2-43.9,9.4-29.1,17.5-57.8,18.5-88.5.5-15.2.3-36.9-7.7-50.2-7-11.6-22-16.8-34.7-12.4-10.3,3.6-17.1,13.3-21.8,22.7-5.3,10.7-8.6,22.3-11.1,34-1.3,6-2.4,12.1-3.3,18.2-3.9,25.3-3.7,51.1-2.1,76.7,1.9,30.9,5.3,60.9-6,90.2-24.8,64.3-118.3,80.5-154.6,17-.5-.9-1-1.9-1.5-2.8-11.4-21.9-13.2-49.6-4.2-72.7,4.8-12.2,11.2-24,21.5-32.4,15.5-12.7,37.4-17.8,55.6-9,5.9,2.9,11.7,6.1,18.1,7.5,9.5,2,21.4-1.6,23-12.5,1.5-10.5-9.5-20.1-18.1-24-15.7-7.1-33.9-7.7-50.5-3.6-52.5,13.1-81.4,59.1-78.4,111.6,2.4,41.8,26.5,78.6,66.2,93.7,6.4,2.4,12.9,4.2,19.6,5.6,42.4,8.5,87.3-10.6,108.3-42-.5,30.6-1.6,53.4-1.9,80.8-.1,13.6-.4,29.7,20.3,29.7,25.1,0,22.8-10.9,23-39.2.4-43.7,3.7-91,32.6-123.8,7.1-8.1,15.8-15.2,26.1-18.5s22.3-2.3,30.8,4.4c9.9,7.8,17.7,25.7,18.6,38.2,1.6,21.9-1.4,41.9-.5,63.9s6.7,45.2,23,60c24.4,22.1,60.2,17.9,85.2-.4,15.9-11.6,25.9-29.1,34.1-47,5.5-12,10.3-25.4,10.3-38.8,0-3.5-.5-7.2-1.6-10.5h0s0,0,0,0ZM362.5,243.1c-2.8-20.3-7.4-85.8,2.4-124.3,6.5-25.5,21.2-38.3,24.7-19,6.4,35.7-5.7,103.9-27.1,143.3Z"/>
      </g>
    </g>
    <g class="st6">
      <path class="st4" d="M326.3,129.6c-3.8-6.4-10.1-10.8-17.2-12.8l-3.4,25.3c1.8,1.2,3.3,4,4.1,8.5,2.6,14.3.8,29.3-1.3,43.5-2.8,18.9-7.2,37.7-12.2,56.1-7.5,27.6-17.9,55.3-31.9,80.6-13.4,24.3-30.7,52.9-54.6,68.1-22.1,14.1-50.3,20.5-75.7,12.1-17.9-6-32.2-19-41.4-35.2-.5-.9-1-1.9-1.5-2.8-11.4-21.9-13.2-49.6-4.2-72.7,4.8-12.2,11.2-24,21.5-32.4,15.5-12.7,37.4-17.8,55.6-9,5.9,2.9,11.7,6.1,18.1,7.5,9.5,2,21.4-1.6,23-12.5,1.5-10.5-9.5-20.1-18.1-24-15.7-7.1-33.9-7.7-50.5-3.6-52.5,13.1-81.4,59.1-78.4,111.6,2.4,41.8,26.5,78.6,66.2,93.7,6.4,2.4,12.9,4.2,19.6,5.6,30.7,6.2,64.2-2,88.9-21.3,45.4-35.5,66.3-92.5,82.1-145.6,8.9-29.8,18-59.3,19-90.6.5-15.2.3-36.9-7.7-50.2h0Z"/>
    </g>
    <g class="st5">
      <path class="st4" d="M550.7,390.9c-3-9.3-10.1-16-21.9-10.7-7.1,3.2-11.9,10-15.1,17.1-10,22-9,48.9-23.1,69-5.7,8.1-14.3,14.5-24.1,15.6-19.4,2.1-34.3-14.4-39.2-31.5-12.3-43.1,11.8-97-25.5-131.9-15.6-14.6-40.2-16.1-59.3-8.5-20.4,8.1-36.2,25-48.2,43.3,1.2-1.8.4-7.9.6-10.1.3-3.9.8-7.9,1.4-11.8,1.1-7.5,2.7-15,4.5-22.4,3.7-14.9,8.5-29.4,13.2-43.9,9.4-29.1,17.5-57.8,18.5-88.5.5-15.2.3-36.9-7.7-50.2-4.8-7.9-13.5-12.9-22.6-13.8-4.1-.4-8.2,0-12.2,1.5-10.3,3.6-17.1,13.3-21.8,22.7-5.3,10.7-8.6,22.3-11.1,34-1.3,6-2.4,12.1-3.3,18.2-3.9,25.3-3.7,51.1-2.1,76.7,1.9,30.9,5.9,88.5-1,126.6-.5,30.6-1.6,53.4-1.9,80.8-.1,13.6-.4,29.7,20.3,29.7,25.1,0,22.8-10.9,23-39.2.4-43.7,3.7-91,32.6-123.8,7.1-8.1,15.8-15.2,26.1-18.5s22.3-2.3,30.8,4.4c9.9,7.8,17.7,25.7,18.6,38.2,1.6,21.9-1.4,41.9-.5,63.9s6.7,45.2,23,60c24.4,22.1,60.2,17.9,85.2-.4,15.9-11.6,25.9-29.1,34.1-47,5.5-12,10.4-25.4,10.3-38.8,0-3.5-.5-7.2-1.6-10.5h0s0,0,0,0ZM281.1,290.6c-2.8-20.3-7.4-85.8,2.4-124.3,6.5-25.5,21.2-38.3,24.7-19,6.4,35.7-5.7,103.9-27.1,143.3h0Z"/>
    </g>
  </g>
</svg>