<?xml version="1.0" encoding="UTF-8"?>
<svg id="Layer_1" xmlns="http://www.w3.org/2000/svg" viewBox="0 0 792 612">
  <defs>
    <style>
      .cls-1 {
        fill: #346b8f;
      }
    </style>
  </defs>
  <path class="cls-1" d="M644.67,368.2c-3.45-9.71-15.68-12.54-24.06-7.62-11.79,6.92-14.16,18.22-17.53,30.23-3.95,14.08-5.02,28.91-10.43,42.58-4.42,11.18-11.41,21.87-22.23,27.72-17.22,9.3-38.04,2.69-46.74-14.82-10.85-21.85-8.67-47.02-8.07-70.52.57-22.47.34-46.82-13.68-65.67-5.01-6.72-11.97-12.18-20.26-14.05-55.87-12.61-98.38,66.79-98.38,66.79l-1.18-32.76c-.17-4.75.93-9.45,3.12-13.68,18.05-34.86,32.45-72.9,36.23-112.22,2.23-23.17,4.45-68.24-16.94-84.52-21.36-16.25-44.58,18.48-50.4,35.21-12.35,35.51-11.89,69.89-11.37,107.07.11,7.77,2.46,24.06,3.1,48.39.25,9.54.39,21-2.3,30.42-2.55,8.91-6.16,16.69-11.32,24.42-11.49,17.87-27.65,33.04-47.34,41.41-27.69,11.8-62.59,8.45-85.26-12.28-22.49-20.53-28.36-56.73-24.15-85.46,4.06-27.79,16.1-58.56,45.53-67.29,12.15-3.6,23.73-1.52,34.72,4.23,9.55,5.02,23.1,9.7,32.7,2.11,9.47-7.49,10.88-18.97,4.3-28.99-5.99-9.09-16.77-14.1-27.54-15.58-74.67-10.25-125.49,68.07-116.47,136.6,7.41,56.44,57.64,111.83,118.39,102.23,23.42-3.69,32.29-12.01,47.81-24.31,23.01-18.24,30.12-37.58,30.12-37.58,0,0,.66,21.2-4.47,70.87-1.41,13.61-2.92,35.29,10.29,44.28,9.01,6.13,23.37,4.3,29.18-5.37,2.17-3.6,2.93-7.86,3.54-12.02,6.16-41.52-1.58-82.4,22-119.89,11.38-18.09,26.8-41.01,48.38-47.92,19.44-6.21,33.09,5.98,34.72,25.74,1.67,20.08-.71,40.21-1.21,60.33-.6,25.15,3.28,52.18,19.4,72.37,6.89,8.63,16.16,15.13,26.52,18.89,18.9,6.86,40.77,4.65,58.02-5.61,21.41-12.74,33.54-37.25,43.22-59.49,6.44-14.79,10.88-30.7,11.17-46.9.05-2.69-.35-5.17-1.13-7.36ZM373.81,291.77s-3.2-37.68-1.19-70.14c1.29-20.88,1.59-42.97,7.68-63.15,1.56-5.17,9.89-27.64,17.35-15.43,1.26,2.07,1.68,4.52,2.03,6.92,3.42,23.51,1.17,46.38-3.03,69.59-6.9,38.14-20.43,69.33-22.84,72.2Z"/>
</svg>