<?xml version="1.0" encoding="UTF-8"?>
<svg id="Layer_1" xmlns="http://www.w3.org/2000/svg" viewBox="0 0 792 612">
  <defs>
    <style>
      .cls-1 {
        fill: #346b8f;
      }
    </style>
  </defs>
  <path class="cls-1" d="M632.05,343.38c-2.96-9.28-10.08-15.99-21.9-10.67-7.1,3.2-11.9,10.03-15.14,17.11-10.03,21.96-9.03,48.92-23.07,68.99-5.66,8.09-14.28,14.55-24.09,15.61-19.37,2.11-34.33-14.41-39.21-31.53-12.29-43.14,11.79-96.97-25.46-131.91-15.57-14.61-40.16-16.09-59.32-8.48-20.4,8.11-36.16,24.99-48.25,43.31,1.17-1.77.38-7.88.57-10.12.34-3.95.82-7.89,1.41-11.81,1.14-7.53,2.7-14.98,4.54-22.37,3.69-14.85,8.47-29.4,13.17-43.95,9.4-29.06,17.48-57.83,18.5-88.51.5-15.19.32-36.92-7.72-50.23-6.97-11.55-22.03-16.84-34.73-12.37-10.29,3.62-17.1,13.28-21.76,22.66-5.31,10.69-8.6,22.34-11.12,33.97-1.3,6.02-2.36,12.08-3.29,18.17-3.9,25.33-3.7,51.13-2.1,76.65,1.93,30.85,5.26,60.91-6.03,90.24-24.76,64.32-118.27,80.52-154.57,16.97-.53-.92-1.03-1.85-1.52-2.79-11.36-21.9-13.23-49.62-4.23-72.66,4.75-12.16,11.2-24.04,21.46-32.42,15.53-12.66,37.37-17.81,55.57-8.98,5.9,2.86,11.72,6.11,18.13,7.46,9.48,2,21.42-1.58,23-12.51,1.52-10.49-9.52-20.13-18.12-24.01-15.7-7.08-33.91-7.73-50.48-3.59-52.48,13.11-81.36,59.08-78.38,111.62,2.37,41.77,26.53,78.65,66.2,93.67,6.37,2.41,12.95,4.25,19.62,5.59,42.39,8.53,87.34-10.62,108.35-41.96-.46,30.65-1.63,53.41-1.89,80.78-.13,13.59-.44,29.7,20.34,29.71,25.06.02,22.79-10.91,23.05-39.21.4-43.72,3.67-91.02,32.56-123.83,7.13-8.09,15.81-15.18,26.08-18.47s22.3-2.27,30.76,4.42c9.86,7.8,17.66,25.67,18.58,38.21,1.61,21.94-1.35,41.93-.51,63.92.84,21.99,6.72,45.21,23.04,59.97,24.4,22.07,60.17,17.91,85.24-.39,15.94-11.63,25.91-29.14,34.08-46.95,5.51-12.03,10.35-25.43,10.26-38.82-.02-3.54-.55-7.18-1.61-10.5ZM362.47,243.15c-2.75-20.34-7.35-85.83,2.41-124.28,6.48-25.54,21.24-38.3,24.71-18.99,6.41,35.72-5.74,103.92-27.12,143.27Z"/>
</svg>